<svg height='300px' width='300px'  fill="#FFFFFF" xmlns="http://www.w3.org/2000/svg" xmlns:xlink="http://www.w3.org/1999/xlink" xmlns:serif="http://www.serif.com/" viewBox="0 0 100 100" version="1.1" xml:space="preserve" style="" x="0px" y="0px" fill-rule="evenodd" clip-rule="evenodd" stroke-linejoin="round" stroke-miterlimit="1.41421"><g><g><path d="M89.081,44.079C89.983,43.191 90.5,41.95 90.5,40.677C90.5,38.024 88.341,35.866 85.688,35.866L67.343,35.866L67.343,25.518C67.343,17.214 60.587,10.458 52.283,10.458L47.717,10.458C39.413,10.458 32.657,17.214 32.657,25.518L32.657,35.866L14.312,35.866C13.019,35.866 11.81,36.37 10.919,37.274C10.017,38.163 9.5,39.403 9.5,40.677C9.5,43.329 11.659,45.488 14.312,45.488L18.63,45.488L12.956,83.993C12.913,84.237 12.898,84.48 12.898,84.723C12.898,87.091 14.664,89.141 17.009,89.49C17.245,89.525 17.482,89.542 17.716,89.542C18.743,89.542 19.739,89.214 20.577,88.59C21.609,87.822 22.28,86.696 22.466,85.423L26.607,57.319L43.942,57.319L43.942,59.634L33.474,59.634C31.227,59.634 29.399,61.462 29.399,63.709L29.399,65.763C29.399,68.01 31.227,69.838 33.474,69.838L34.087,69.838L34.087,88.554C34.087,89.1 34.529,89.542 35.075,89.542L41.007,89.542C41.553,89.542 41.994,89.1 41.994,88.554L41.994,69.838L58.006,69.838L58.006,88.554C58.006,89.1 58.447,89.542 58.993,89.542L64.925,89.542C65.471,89.542 65.913,89.1 65.913,88.554L65.913,69.838L66.526,69.838C68.773,69.838 70.601,68.01 70.601,65.763L70.601,63.709C70.601,61.462 68.773,59.634 66.526,59.634L56.058,59.634L56.058,57.319L73.394,57.319L77.534,85.422C77.72,86.696 78.391,87.822 79.423,88.59C80.261,89.214 81.257,89.542 82.284,89.542C82.519,89.542 82.757,89.525 82.994,89.49C85.336,89.141 87.102,87.091 87.102,84.723C87.102,84.48 87.087,84.237 87.048,84.021L81.37,45.488L85.688,45.488C86.981,45.488 88.189,44.984 89.081,44.079ZM34.632,25.518C34.632,18.303 40.502,12.434 47.717,12.434L52.283,12.434C59.498,12.434 65.368,18.303 65.368,25.518L65.368,35.866L34.632,35.866L34.632,25.518ZM11.476,40.677C11.476,39.917 11.771,39.209 12.317,38.672C12.843,38.137 13.553,37.842 14.312,37.842L85.688,37.842C87.252,37.842 88.524,39.113 88.524,40.677C88.524,41.436 88.229,42.144 87.683,42.681C87.156,43.218 86.447,43.513 85.688,43.513L80.226,43.513L72.503,43.513L27.497,43.513L19.774,43.513L14.312,43.513C12.748,43.513 11.476,42.24 11.476,40.677ZM20.512,85.137C20.402,85.889 20.006,86.552 19.397,87.005C18.791,87.457 18.043,87.643 17.297,87.536C15.915,87.329 14.873,86.12 14.873,84.723C14.873,84.593 14.879,84.465 14.906,84.309L20.626,45.488L26.352,45.488L24.771,56.186C24.77,56.194 24.774,56.202 24.773,56.21L20.512,85.137ZM40.019,87.566L36.063,87.566L36.063,69.838L40.019,69.838L40.019,87.566ZM63.937,87.566L59.981,87.566L59.981,69.838L63.937,69.838L63.937,87.566ZM68.626,63.709L68.626,65.763C68.626,66.921 67.684,67.862 66.526,67.862L64.925,67.862L58.993,67.862L41.007,67.862L35.075,67.862L33.474,67.862C32.316,67.862 31.374,66.921 31.374,65.763L31.374,63.709C31.374,62.551 32.316,61.61 33.474,61.61L66.526,61.61C67.684,61.61 68.626,62.551 68.626,63.709ZM54.082,59.634L45.918,59.634L45.918,57.319L54.082,57.319L54.082,59.634ZM55.07,55.343L44.93,55.343L26.898,55.343L27.579,50.719L43.445,50.719C43.991,50.719 44.433,50.277 44.433,49.731C44.433,49.185 43.991,48.743 43.445,48.743L27.87,48.743L28.35,45.488L71.65,45.488L73.102,55.343L55.07,55.343ZM85.099,84.337C85.121,84.465 85.127,84.593 85.127,84.723C85.127,86.12 84.085,87.329 82.706,87.536C81.957,87.644 81.209,87.457 80.603,87.005C79.994,86.552 79.598,85.889 79.488,85.136L75.227,56.21C75.226,56.202 75.23,56.194 75.229,56.186L73.648,45.488L79.374,45.488L85.099,84.337Z" style="" fill-rule="nonzero"></path><path d="M50,48.743L48.537,48.743C47.991,48.743 47.549,49.185 47.549,49.731C47.549,50.277 47.991,50.719 48.537,50.719L50,50.719C50.546,50.719 50.988,50.277 50.988,49.731C50.988,49.185 50.546,48.743 50,48.743Z" style="" fill-rule="nonzero"></path><path d="M42.302,16.97C39.355,18.843 37.596,22.039 37.596,25.518L37.596,28.021C37.596,28.567 38.037,29.009 38.583,29.009C39.129,29.009 39.571,28.567 39.571,28.021L39.571,25.518C39.571,22.718 40.988,20.146 43.361,18.637C43.822,18.345 43.958,17.734 43.665,17.274C43.373,16.814 42.762,16.678 42.302,16.97Z" style="" fill-rule="nonzero"></path><path d="M47.717,15.397C47.364,15.397 47.014,15.415 46.671,15.45C46.128,15.506 45.733,15.991 45.788,16.533C45.84,17.043 46.27,17.421 46.77,17.421C46.804,17.421 46.838,17.419 46.872,17.416C47.149,17.387 47.431,17.373 47.717,17.373C48.263,17.373 48.704,16.931 48.704,16.385C48.704,15.839 48.263,15.397 47.717,15.397Z" style="" fill-rule="nonzero"></path></g></g></svg>